# xmcd
#
# Track frame offsets:
#	150
#	17575
#	33667
#	49630
#	69852
#	91972
#	117050
#	138840
#	155225
#	167052
#	183507
#	202060
#	219870
#	237837
#	252520
#
# Disc length: 3639 seconds
#
# Revision: 4
# Processed by: cddbd v1.5.2PL0 Copyright (c) Steve Scherf et al.
# Submitted via: audiograbber 1.83.01
#
DISCID=cb0e350f
DTITLE=Various Artist - SC8527
DYEAR=1900
DGENRE=Karaoke
TTITLE0=REO Speedwagon - Time For Me To Fly
TTITLE1=Nilsson, Harry - Without You
TTITLE2=Hall and Oates - Sara Smile
TTITLE3=Tears For Fears - Shout
TTITLE4=Foreigner - Urgent
TTITLE5=Kemp, Johnny - Just Got Paid
TTITLE6=Supertramp - Bloody Well Right
TTITLE7=Easton, Sheena - Morning Train (Nine To Five)
TTITLE8=Sly and The Family Stone - Everyday People
TTITLE9=Fine Young Cannibals - Good Thing
TTITLE10=Cummings, Burton - Stand Tall
TTITLE11=Time, The - Bird, The
TTITLE12=J. Geils Band, The - Love Stinks
TTITLE13=Bloom, Bobby - Montego Bay
TTITLE14=Firm, The - Satisfaction Guaranteed
EXTD=
EXTT0=
EXTT1=
EXTT2=
EXTT3=
EXTT4=
EXTT5=
EXTT6=
EXTT7=
EXTT8=
EXTT9=
EXTT10=
EXTT11=
EXTT12=
EXTT13=
EXTT14=
PLAYORDER=
